<svg width="53" height="53" viewBox="0 0 53 53" fill="none" xmlns="http://www.w3.org/2000/svg">
<path d="M48.8778 53L30.3278 34.45C28.8556 35.6278 27.1625 36.5602 25.2486 37.2472C23.3347 37.9343 21.2981 38.2778 19.1389 38.2778C13.7898 38.2778 9.26273 36.4252 5.55764 32.7201C1.85255 29.015 0 24.488 0 19.1389C0 13.7898 1.85255 9.26273 5.55764 5.55764C9.26273 1.85255 13.7898 0 19.1389 0C24.488 0 29.015 1.85255 32.7201 5.55764C36.4252 9.26273 38.2778 13.7898 38.2778 19.1389C38.2778 21.2981 37.9343 23.3347 37.2472 25.2486C36.5602 27.1625 35.6278 28.8556 34.45 30.3278L53 48.8778L48.8778 53ZM19.1389 32.3889C22.8194 32.3889 25.9479 31.1007 28.5243 28.5243C31.1007 25.9479 32.3889 22.8194 32.3889 19.1389C32.3889 15.4583 31.1007 12.3299 28.5243 9.75347C25.9479 7.17708 22.8194 5.88889 19.1389 5.88889C15.4583 5.88889 12.3299 7.17708 9.75347 9.75347C7.17708 12.3299 5.88889 15.4583 5.88889 19.1389C5.88889 22.8194 7.17708 25.9479 9.75347 28.5243C12.3299 31.1007 15.4583 32.3889 19.1389 32.3889Z" fill="white"/>
</svg>
