<svg width="59" height="59" viewBox="0 0 59 59" fill="none" xmlns="http://www.w3.org/2000/svg">
<path d="M11.3575 44.545C13.865 42.6275 16.6675 41.1156 19.765 40.0094C22.8625 38.9031 26.1075 38.35 29.5 38.35C32.8925 38.35 36.1375 38.9031 39.235 40.0094C42.3325 41.1156 45.135 42.6275 47.6425 44.545C49.3633 42.5292 50.7031 40.2429 51.6619 37.6862C52.6206 35.1296 53.1 32.4008 53.1 29.5C53.1 22.9608 50.8014 17.3927 46.2044 12.7956C41.6073 8.19854 36.0392 5.9 29.5 5.9C22.9608 5.9 17.3927 8.19854 12.7956 12.7956C8.19854 17.3927 5.9 22.9608 5.9 29.5C5.9 32.4008 6.37937 35.1296 7.33812 37.6862C8.29687 40.2429 9.63666 42.5292 11.3575 44.545ZM29.5 32.45C26.5992 32.45 24.1531 31.4544 22.1619 29.4631C20.1706 27.4719 19.175 25.0258 19.175 22.125C19.175 19.2242 20.1706 16.7781 22.1619 14.7869C24.1531 12.7956 26.5992 11.8 29.5 11.8C32.4008 11.8 34.8469 12.7956 36.8381 14.7869C38.8294 16.7781 39.825 19.2242 39.825 22.125C39.825 25.0258 38.8294 27.4719 36.8381 29.4631C34.8469 31.4544 32.4008 32.45 29.5 32.45ZM29.5 59C25.4192 59 21.5842 58.2256 17.995 56.6769C14.4058 55.1281 11.2837 53.0262 8.62875 50.3712C5.97375 47.7162 3.87187 44.5942 2.32312 41.005C0.774375 37.4158 0 33.5808 0 29.5C0 25.4192 0.774375 21.5842 2.32312 17.995C3.87187 14.4058 5.97375 11.2837 8.62875 8.62875C11.2837 5.97375 14.4058 3.87187 17.995 2.32312C21.5842 0.774375 25.4192 0 29.5 0C33.5808 0 37.4158 0.774375 41.005 2.32312C44.5942 3.87187 47.7162 5.97375 50.3712 8.62875C53.0262 11.2837 55.1281 14.4058 56.6769 17.995C58.2256 21.5842 59 25.4192 59 29.5C59 33.5808 58.2256 37.4158 56.6769 41.005C55.1281 44.5942 53.0262 47.7162 50.3712 50.3712C47.7162 53.0262 44.5942 55.1281 41.005 56.6769C37.4158 58.2256 33.5808 59 29.5 59ZM29.5 53.1C32.1058 53.1 34.5642 52.7189 36.875 51.9569C39.1858 51.1948 41.3 50.1008 43.2175 48.675C41.3 47.2492 39.1858 46.1552 36.875 45.3931C34.5642 44.631 32.1058 44.25 29.5 44.25C26.8942 44.25 24.4358 44.631 22.125 45.3931C19.8142 46.1552 17.7 47.2492 15.7825 48.675C17.7 50.1008 19.8142 51.1948 22.125 51.9569C24.4358 52.7189 26.8942 53.1 29.5 53.1ZM29.5 26.55C30.7783 26.55 31.8354 26.1321 32.6712 25.2962C33.5071 24.4604 33.925 23.4033 33.925 22.125C33.925 20.8467 33.5071 19.7896 32.6712 18.9537C31.8354 18.1179 30.7783 17.7 29.5 17.7C28.2217 17.7 27.1646 18.1179 26.3287 18.9537C25.4929 19.7896 25.075 20.8467 25.075 22.125C25.075 23.4033 25.4929 24.4604 26.3287 25.2962C27.1646 26.1321 28.2217 26.55 29.5 26.55Z" fill="black"/>
</svg>
