<svg width="42" height="42" viewBox="0 0 42 42" fill="none" xmlns="http://www.w3.org/2000/svg">
<mask id="mask0_407_152" style="mask-type:alpha" maskUnits="userSpaceOnUse" x="-5" y="-5" width="52" height="52">
<rect x="-4.20007" y="-4.19995" width="50.3999" height="50.3999" fill="#D9D9D9"/>
</mask>
<g mask="url(#mask0_407_152)">
<path d="M21 27.2999C22.75 27.2999 24.2375 26.6875 25.4625 25.4625C26.6875 24.2375 27.2999 22.75 27.2999 21C27.2999 19.25 26.6875 17.7625 25.4625 16.5375C24.2375 15.3125 22.75 14.7 21 14.7C19.25 14.7 17.7625 15.3125 16.5375 16.5375C15.3125 17.7625 14.7 19.25 14.7 21C14.7 22.75 15.3125 24.2375 16.5375 25.4625C17.7625 26.6875 19.25 27.2999 21 27.2999ZM21 41.9999C18.095 41.9999 15.365 41.4487 12.81 40.3462C10.255 39.2437 8.03248 37.7474 6.14249 35.8574C4.25249 33.9674 2.75624 31.7449 1.65375 29.1899C0.551249 26.635 0 23.905 0 21C0 18.095 0.551249 15.365 1.65375 12.81C2.75624 10.255 4.25249 8.03248 6.14249 6.14249C8.03248 4.25249 10.255 2.75624 12.81 1.65375C15.365 0.551249 18.095 0 21 0C23.905 0 26.635 0.551249 29.1899 1.65375C31.7449 2.75624 33.9674 4.25249 35.8574 6.14249C37.7474 8.03248 39.2437 10.255 40.3462 12.81C41.4487 15.365 41.9999 18.095 41.9999 21C41.9999 23.905 41.4487 26.635 40.3462 29.1899C39.2437 31.7449 37.7474 33.9674 35.8574 35.8574C33.9674 37.7474 31.7449 39.2437 29.1899 40.3462C26.635 41.4487 23.905 41.9999 21 41.9999ZM21 37.7999C25.69 37.7999 29.6624 36.1724 32.9174 32.9174C36.1724 29.6624 37.7999 25.69 37.7999 21C37.7999 16.31 36.1724 12.3375 32.9174 9.08248C29.6624 5.82749 25.69 4.19999 21 4.19999C16.31 4.19999 12.3375 5.82749 9.08248 9.08248C5.82749 12.3375 4.19999 16.31 4.19999 21C4.19999 25.69 5.82749 29.6624 9.08248 32.9174C12.3375 36.1724 16.31 37.7999 21 37.7999Z" fill="#1C1B1F"/>
</g>
</svg>
