<svg width="50" height="25" viewBox="0 0 50 25" fill="none" xmlns="http://www.w3.org/2000/svg">
<path d="M2.27273 24.7224V20.602H47.7273V24.7224H2.27273ZM4.88636 12.2582L1.93182 10.713L3.86364 7.62274H0V4.53244H3.86364L1.93182 1.54515L4.88636 0L6.81818 2.98729L8.75 0L11.7045 1.54515L9.77273 4.53244H13.6364V7.62274H9.77273L11.7045 10.713L8.75 12.2582L6.81818 9.16789L4.88636 12.2582ZM23.0682 12.2582L20.1136 10.713L22.0455 7.62274H18.1818V4.53244H22.0455L20.1136 1.54515L23.0682 0L25 2.98729L26.9318 0L29.8864 1.54515L27.9545 4.53244H31.8182V7.62274H27.9545L29.8864 10.713L26.9318 12.2582L25 9.16789L23.0682 12.2582ZM41.25 12.2582L38.2955 10.713L40.2273 7.62274H36.3636V4.53244H40.2273L38.2955 1.54515L41.25 0L43.1818 2.98729L45.1136 0L48.0682 1.54515L46.1364 4.53244H50V7.62274H46.1364L48.0682 10.713L45.1136 12.2582L43.1818 9.16789L41.25 12.2582Z" fill="white"/>
</svg>
