<svg width="36" height="43" viewBox="0 0 36 43" fill="none" xmlns="http://www.w3.org/2000/svg">
<path d="M4.5 42.8339C3.2625 42.8339 2.20312 42.4344 1.32187 41.6355C0.440625 40.8367 0 39.8763 0 38.7545V18.3574C0 17.2355 0.440625 16.2752 1.32187 15.4763C2.20312 14.6774 3.2625 14.278 4.5 14.278H6.75V10.1985C6.75 7.37694 7.84687 4.97179 10.0406 2.98307C12.2344 0.994358 14.8875 0 18 0C21.1125 0 23.7656 0.994358 25.9594 2.98307C28.1531 4.97179 29.25 7.37694 29.25 10.1985V14.278H31.5C32.7375 14.278 33.7969 14.6774 34.6781 15.4763C35.5594 16.2752 36 17.2355 36 18.3574V38.7545C36 39.8763 35.5594 40.8367 34.6781 41.6355C33.7969 42.4344 32.7375 42.8339 31.5 42.8339H4.5ZM4.5 38.7545H31.5V18.3574H4.5V38.7545ZM18 32.6353C19.2375 32.6353 20.2969 32.2359 21.1781 31.437C22.0594 30.6381 22.5 29.6778 22.5 28.5559C22.5 27.4341 22.0594 26.4737 21.1781 25.6748C20.2969 24.8759 19.2375 24.4765 18 24.4765C16.7625 24.4765 15.7031 24.8759 14.8219 25.6748C13.9406 26.4737 13.5 27.4341 13.5 28.5559C13.5 29.6778 13.9406 30.6381 14.8219 31.437C15.7031 32.2359 16.7625 32.6353 18 32.6353ZM11.25 14.278H24.75V10.1985C24.75 8.49878 24.0937 7.05399 22.7812 5.86416C21.4687 4.67433 19.875 4.07942 18 4.07942C16.125 4.07942 14.5312 4.67433 13.2187 5.86416C11.9062 7.05399 11.25 8.49878 11.25 10.1985V14.278Z" fill="white"/>
</svg>
