<svg width="45" height="33" viewBox="0 0 45 33" fill="none" xmlns="http://www.w3.org/2000/svg">
<path d="M4.5 32.6353C3.2625 32.6353 2.20312 32.2359 1.32188 31.437C0.440625 30.6381 0 29.6778 0 28.5559V4.07942C0 2.95758 0.440625 1.99721 1.32188 1.19833C2.20312 0.399443 3.2625 0 4.5 0H40.5C41.7375 0 42.7969 0.399443 43.6781 1.19833C44.5594 1.99721 45 2.95758 45 4.07942V28.5559C45 29.6778 44.5594 30.6381 43.6781 31.437C42.7969 32.2359 41.7375 32.6353 40.5 32.6353H4.5ZM22.5 18.3574L4.5 8.15883V28.5559H40.5V8.15883L22.5 18.3574ZM22.5 14.278L40.5 4.07942H4.5L22.5 14.278ZM4.5 8.15883V4.07942V28.5559V8.15883Z" fill="white"/>
</svg>
