<svg width="54" height="37" viewBox="0 0 54 37" fill="none" xmlns="http://www.w3.org/2000/svg">
<path d="M31.5 16.3168H47.25V6.1188H31.5V16.3168ZM39.375 13.7673L33.75 10.198V8.1584L39.375 11.7277L45 8.1584V10.198L39.375 13.7673ZM4.5 36.7128C3.2625 36.7128 2.20313 36.3134 1.32188 35.5145C0.440625 34.7157 0 33.7554 0 32.6336V4.0792C0 2.95742 0.440625 1.99711 1.32188 1.19826C2.20313 0.399422 3.2625 0 4.5 0H49.5C50.7375 0 51.7969 0.399422 52.6781 1.19826C53.5594 1.99711 54 2.95742 54 4.0792V32.6336C54 33.7554 53.5594 34.7157 52.6781 35.5145C51.7969 36.3134 50.7375 36.7128 49.5 36.7128H4.5ZM35.775 32.6336H49.5V4.0792H4.5V32.6336H4.725C6.3 30.0841 8.475 28.087 11.25 26.6423C14.025 25.1976 17.025 24.4752 20.25 24.4752C23.475 24.4752 26.475 25.1976 29.25 26.6423C32.025 28.087 34.2 30.0841 35.775 32.6336ZM20.25 22.4356C22.125 22.4356 23.7188 21.8407 25.0313 20.6509C26.3438 19.4612 27 18.0165 27 16.3168C27 14.6171 26.3438 13.1724 25.0313 11.9826C23.7188 10.7929 22.125 10.198 20.25 10.198C18.375 10.198 16.7813 10.7929 15.4688 11.9826C14.1563 13.1724 13.5 14.6171 13.5 16.3168C13.5 18.0165 14.1563 19.4612 15.4688 20.6509C16.7813 21.8407 18.375 22.4356 20.25 22.4356ZM10.2375 32.6336H30.2625C28.9875 31.3418 27.4781 30.339 25.7344 29.6252C23.9906 28.9113 22.1625 28.5544 20.25 28.5544C18.3375 28.5544 16.5188 28.9113 14.7938 29.6252C13.0688 30.339 11.55 31.3418 10.2375 32.6336ZM20.25 18.3564C19.6125 18.3564 19.0781 18.1609 18.6469 17.77C18.2156 17.3791 18 16.8947 18 16.3168C18 15.7389 18.2156 15.2545 18.6469 14.8636C19.0781 14.4727 19.6125 14.2772 20.25 14.2772C20.8875 14.2772 21.4219 14.4727 21.8531 14.8636C22.2844 15.2545 22.5 15.7389 22.5 16.3168C22.5 16.8947 22.2844 17.3791 21.8531 17.77C21.4219 18.1609 20.8875 18.3564 20.25 18.3564Z" fill="white"/>
</svg>
